<?xml version="1.0" encoding="UTF-8"?>
<svg width="18px" height="19px" viewBox="0 0 18 19" version="1.1" xmlns="http://www.w3.org/2000/svg" xmlns:xlink="http://www.w3.org/1999/xlink">
    <!-- Generator: sketchtool 58 (101010) - https://sketch.com -->
    <title>C08B167B-CA9A-45B4-B074-5DE0C6BC8733</title>
    <desc>Created with sketchtool.</desc>
    <g id="Tests" stroke="none" stroke-width="1" fill="none" fill-rule="evenodd">
        <g id="Motefili-final" transform="translate(-557.000000, -4488.000000)" fill="#FFFFFF">
            <g id="footer" transform="translate(0.000000, 4328.000000)">
                <g id="footer-copy" transform="translate(0.000000, 54.000000)">
                    <path d="M575,117.594288 L575,125 L571.154642,125 L571.154642,118.090859 C571.154642,116.355506 570.599041,115.17097 569.207297,115.17097 C568.14443,115.17097 567.512838,115.968543 567.234539,116.741078 C567.133385,117.017043 567.106975,117.400668 567.106975,117.787631 L567.106975,125 L563.26087,125 C563.26087,125 563.312443,113.297356 563.26087,112.085836 L567.106975,112.085836 L567.106975,113.915774 C567.099252,113.929962 567.088538,113.94415 567.081811,113.958059 L567.106975,113.958059 L567.106975,113.915774 C567.617979,113.037805 568.529862,111.782609 570.572631,111.782609 C573.103232,111.782609 575,113.627847 575,117.594288 Z M558.968353,106 C557.778192,106 557,106.8921 557,108.064831 C557,109.212332 557.756106,110.130435 558.922604,110.130435 L558.945591,110.130435 C560.158741,110.130435 560.913043,109.212332 560.913043,108.064831 C560.890281,106.8921 560.158741,106 558.968353,106 Z M557,125 L560.913043,125 L560.913043,112.608696 L557,112.608696 L557,125 Z" id="linkedin-logo"></path>
                </g>
            </g>
        </g>
    </g>
</svg>