<?xml version="1.0" encoding="UTF-8"?>
<svg width="18px" height="18px" viewBox="0 0 18 18" version="1.1" xmlns="http://www.w3.org/2000/svg" xmlns:xlink="http://www.w3.org/1999/xlink">
    <!-- Generator: sketchtool 58 (101010) - https://sketch.com -->
    <title>67D5BC6C-47A8-4D73-A1B4-61F480391AF5</title>
    <desc>Created with sketchtool.</desc>
    <g id="Tests" stroke="none" stroke-width="1" fill="none" fill-rule="evenodd">
        <g id="Motefili-final" transform="translate(-557.000000, -4528.000000)" fill="#FFFFFF" fill-rule="nonzero">
            <g id="footer" transform="translate(0.000000, 4328.000000)">
                <g id="footer-copy" transform="translate(0.000000, 54.000000)">
                    <path d="M558.5,146 C557.671573,146 557,146.671573 557,147.5 L557,152 C557.001,152.636709 557.403858,153.203411 558.004883,153.413575 C558.163886,153.470024 558.331275,153.499243 558.5,153.5 C558.505371,153.500029 558.510742,153.500029 558.516113,153.5 L567.5,155 L558.516113,156.501465 C558.510745,156.500948 558.505374,156.500459 558.5,156.5 C558.330783,156.500592 558.162885,156.529813 558.003418,156.586425 C557.402971,156.797085 557.000782,157.363672 557,158 L557,162.5 C557,163.328427 557.671573,164 558.5,164 C558.76116,163.999506 559.017666,163.930835 559.244141,163.800781 L559.245605,163.800781 L574.542968,155.691406 L574.544433,155.688477 C574.820295,155.570727 574.999474,155.299942 575,155 C575.000399,154.698642 574.820384,154.426312 574.542968,154.308594 L559.245605,146.199219 C559.0187,146.068918 558.761657,146.000239 558.5,146 Z" id="Path"></path>
                </g>
            </g>
        </g>
    </g>
</svg>