<?xml version="1.0" encoding="UTF-8"?>
<svg width="13px" height="13px" viewBox="0 0 13 13" version="1.1" xmlns="http://www.w3.org/2000/svg" xmlns:xlink="http://www.w3.org/1999/xlink">
    <!-- Generator: sketchtool 58 (101010) - https://sketch.com -->
    <title>097B9344-AB44-4042-85E2-95AAE50255EC</title>
    <desc>Created with sketchtool.</desc>
    <g id="Tests" stroke="none" stroke-width="1" fill="none" fill-rule="evenodd" opacity="0.705543155">
        <g id="Motefili-final" transform="translate(-1096.000000, -521.000000)" fill="#979797">
            <g id="Group-5-Copy" transform="translate(839.000000, 499.000000)">
                <g id="Group-6" transform="translate(197.000000, 0.000000)">
                    <path d="M65.2917647,34.4481132 L65.2917647,29.7570755 L60.5811765,29.7570755 C60.2752941,29.7570755 60,29.4811321 60,29.1745283 L60,27.8867925 C60,27.5801887 60.2752941,27.3042453 60.5811765,27.3042453 L65.2917647,27.3042453 L65.2917647,22.5518868 C65.2917647,22.245283 65.5670588,22 65.8729412,22 L67.1576471,22 C67.4635294,22 67.7388235,22.245283 67.7388235,22.5518868 L67.7388235,27.3042453 L72.4494118,27.3042453 C72.7552941,27.3042453 73,27.5801887 73,27.8867925 L73,29.1745283 C73,29.4811321 72.7552941,29.7570755 72.4494118,29.7570755 L67.7388235,29.7570755 L67.7388235,34.4481132 C67.7388235,34.754717 67.4635294,35 67.1576471,35 L65.8729412,35 C65.5670588,35 65.2917647,34.754717 65.2917647,34.4481132 Z" id="+10-Spots-Copy-8"></path>
                </g>
            </g>
        </g>
    </g>
</svg>