<?xml version="1.0" encoding="UTF-8"?>
<svg width="20px" height="19px" viewBox="0 0 20 19" version="1.1" xmlns="http://www.w3.org/2000/svg" xmlns:xlink="http://www.w3.org/1999/xlink">
    <!-- Generator: sketchtool 58 (101010) - https://sketch.com -->
    <title>5B0895B4-1E42-45CA-A5FB-2E89006BE1DF</title>
    <desc>Created with sketchtool.</desc>
    <g id="Tests" stroke="none" stroke-width="1" fill="none" fill-rule="evenodd">
        <g id="Motefili-final" transform="translate(-1114.000000, -609.000000)">
            <g id="Group-Copy-3" transform="translate(1115.000000, 609.000000)">
                <circle id="Oval" stroke="#979797" stroke-width="1.24800004" fill-rule="nonzero" cx="8.73600031" cy="9.46400007" r="8.73600031"></circle>
                <path d="M8.06208028,10.1158718 C7.91232028,10.1158718 7.77753627,9.99606376 7.77753627,9.83132775 L7.77753627,9.20233573 C7.77753627,7.34531166 10.0239364,7.49507167 10.0239364,5.80278361 C10.0239364,5.09891159 9.51475233,4.48489556 8.5413123,4.48489556 C7.32825626,4.48489556 6.77414424,5.18876759 6.47462423,5.5032636 C6.33984022,5.6380476 6.22003222,5.6380476 6.08524821,5.5182396 L5.8007042,5.26364759 C5.6808962,5.15881559 5.7108482,4.99407958 5.8007042,4.87427158 C5.8007042,4.87427158 6.65433623,3.55638353 8.5413123,3.55638353 C10.0988164,3.55638353 11.1471364,4.46991956 11.1471364,5.84771161 C11.1471364,7.80956768 8.78092831,7.97430369 8.78092831,9.20233573 L8.78092831,9.81635175 C8.78092831,10.0260158 8.6161923,10.1158718 8.4664323,10.1158718 L8.06208028,10.1158718 Z M7.38816026,13.4854719 C7.38816026,13.0062399 7.77753627,12.6318398 8.24179229,12.6318398 C8.72102431,12.6318398 9.09542432,13.0062399 9.09542432,13.4854719 C9.09542432,13.9497279 8.72102431,14.3391039 8.24179229,14.3391039 C7.77753627,14.3391039 7.38816026,13.9497279 7.38816026,13.4854719 Z" id="?" fill="#979797"></path>
            </g>
        </g>
    </g>
</svg>