<?xml version="1.0" encoding="UTF-8"?>
<svg width="20px" height="16px" viewBox="0 0 20 16" version="1.1" xmlns="http://www.w3.org/2000/svg" xmlns:xlink="http://www.w3.org/1999/xlink">
    <!-- Generator: sketchtool 58 (101010) - https://sketch.com -->
    <title>B542B149-79F6-4519-8F8A-4386BF760B33</title>
    <desc>Created with sketchtool.</desc>
    <g id="Tests" stroke="none" stroke-width="1" fill="none" fill-rule="evenodd">
        <g id="Motefili-final" transform="translate(-556.000000, -4451.000000)" fill="#FFFFFF">
            <g id="footer" transform="translate(0.000000, 4328.000000)">
                <g id="footer-copy" transform="translate(0.000000, 54.000000)">
                    <path d="M576,70.8926717 C575.267245,71.2127332 574.473557,71.4343143 573.643934,71.531256 C574.492305,71.0311598 575.13913,70.2386997 575.450043,69.2939027 C574.656355,69.7570687 573.778299,70.0940565 572.837747,70.2740912 C572.094055,69.4924024 571.025389,69 569.847356,69 C567.58347,69 565.746114,70.8095788 565.746114,73.0392383 C565.746114,73.3577611 565.783611,73.6639738 565.850793,73.9594153 C562.438559,73.790152 559.418483,72.1852279 557.392079,69.7386036 C557.037419,70.3341027 556.835872,71.0311598 556.835872,71.7713022 C556.835872,73.1715715 557.562378,74.4102712 558.66073,75.1304097 C557.988907,75.1134834 557.360831,74.9272937 556.806187,74.6256972 L556.806187,74.6749375 C556.806187,76.6337757 558.221701,78.2679361 560.094993,78.6418542 C559.752832,78.7311021 559.387235,78.7788036 559.015389,78.7788036 C558.75291,78.7788036 558.49668,78.7557223 558.24045,78.7080208 C558.765409,80.3129448 560.277791,81.4777842 562.072963,81.5147144 C560.668385,82.5964609 558.898211,83.2396615 556.976486,83.2396615 C556.646824,83.2396615 556.323412,83.2211964 556,83.185805 C557.818608,84.333718 559.973127,85 562.291696,85 C569.834857,85 573.961097,78.8449702 573.961097,73.5085593 L573.948598,72.9853818 C574.754785,72.4145028 575.450043,71.7051356 576,70.8926717 Z" id="twitter-logo-silhouette"></path>
                </g>
            </g>
        </g>
    </g>
</svg>