<svg width="53" height="53" xmlns="http://www.w3.org/2000/svg" xmlns:xlink="http://www.w3.org/1999/xlink"><defs><filter x="-62.1%" y="-62.1%" width="224.1%" height="224.1%" filterUnits="objectBoundingBox" id="a"><feOffset in="SourceAlpha" result="shadowOffsetOuter1"/><feGaussianBlur stdDeviation="6" in="shadowOffsetOuter1" result="shadowBlurOuter1"/><feColorMatrix values="0 0 0 0 0 0 0 0 0 0 0 0 0 0 0 0 0 0 0.5 0" in="shadowBlurOuter1"/></filter><path d="M879.5 3208c8.008 0 14.5 6.492 14.5 14.5s-6.492 14.5-14.5 14.5-14.5-6.492-14.5-14.5 6.492-14.5 14.5-14.5zm-4.795 8.02a1.178 1.178 0 00.319 1.635l7.189 4.842-7.193 4.848a1.178 1.178 0 101.318 1.954l8.642-5.825a1.178 1.178 0 000-1.954l-8.639-5.819a1.179 1.179 0 00-1.636.319z" id="b"/></defs><g transform="rotate(-180 453 1624.5)" fill="none" fill-rule="evenodd" opacity=".5"><use fill="#000" filter="url(#a)" xlink:href="#b"/><use fill="#FFF" xlink:href="#b"/></g></svg>