<svg width="18" height="19" xmlns="http://www.w3.org/2000/svg"><path d="M18 11.594V19h-3.845v-6.91c0-1.734-.556-2.919-1.948-2.919-1.063 0-1.694.798-1.972 1.57-.102.276-.128.66-.128 1.047V19H6.261s.051-11.703 0-12.914h3.846v1.83c-.008.014-.018.028-.025.042h.025v-.042c.511-.878 1.423-2.133 3.466-2.133 2.53 0 4.427 1.845 4.427 5.811zM1.968 0C.778 0 0 .892 0 2.065 0 3.212.756 4.13 1.923 4.13h.023c1.213 0 1.967-.918 1.967-2.065C3.89.892 3.159 0 1.968 0zM0 19h3.913V6.609H0V19z" fill="#FFF" fill-rule="evenodd"/></svg>