<svg width="20" height="19" xmlns="http://www.w3.org/2000/svg"><g transform="translate(1)" fill="none" fill-rule="evenodd"><circle stroke="#979797" stroke-width="1.248" cx="8.736" cy="9.464" r="8.736"/><path d="M8.062 10.116a.284.284 0 01-.284-.285v-.629c0-1.857 2.246-1.707 2.246-3.4 0-.703-.51-1.317-1.483-1.317-1.213 0-1.767.704-2.066 1.018-.135.135-.255.135-.39.015l-.284-.254c-.12-.105-.09-.27 0-.39 0 0 .853-1.318 2.74-1.318 1.558 0 2.606.914 2.606 2.292 0 1.962-2.366 2.126-2.366 3.354v.614c0 .21-.165.3-.315.3h-.404zm-.674 3.37c0-.48.39-.854.854-.854.479 0 .853.374.853.853a.853.853 0 01-.853.854.863.863 0 01-.854-.854z" fill="#979797"/></g></svg>