<svg width="20" height="16" xmlns="http://www.w3.org/2000/svg"><path d="M20 1.893a8.297 8.297 0 01-2.356.638A4.082 4.082 0 0019.45.294c-.794.463-1.672.8-2.612.98A4.125 4.125 0 0013.848 0c-2.265 0-4.102 1.81-4.102 4.04 0 .318.038.624.105.92A11.708 11.708 0 011.392.738 3.963 3.963 0 00.836 2.77c0 1.4.726 2.64 1.825 3.36a4.088 4.088 0 01-1.855-.505v.049c0 1.959 1.416 3.593 3.289 3.967a4.295 4.295 0 01-1.855.066c.525 1.605 2.038 2.77 3.833 2.807A8.326 8.326 0 01.976 14.24 9.02 9.02 0 010 14.186 11.741 11.741 0 006.292 16c7.543 0 11.67-6.155 11.67-11.491l-.013-.524A8.196 8.196 0 0020 1.893z" fill="#FFF" fill-rule="evenodd"/></svg>