<svg width="149" height="56" xmlns="http://www.w3.org/2000/svg"><path d="M64.066 34.16c-.085-1.131.2-2.306.8-3.509.657-1.317 1.655-2.609 2.943-3.935 1.916-2.037 7.255-6.978 8.03-7.459l.027-.014.028-.013c1.043-.5 2.664-.646 3.841-.168 1.021.44 1.562 1.414 1.546 2.475-.016 1.038-.574 1.94-1.462 1.94-.644 0-1.179.288-2.828 1.73-.255.225-3.179 2.615-4.188 3.502-1.089.958-1.993 1.835-2.726 2.66-.95 1.07-1.574 2.015-1.826 2.807-.212.683-.13 1.025.206 1.287.335.264.799.427 2.049.761l.28.078c2.7.765 3.845 1.22 4.903 2.17.406.368.743.786.996 1.234.48-2.343 2.8-7.156 5.928-10.119 2.968-2.798 5.41-3.207 6.633-3.033 1.63.175 3.897 2.859 4.188 5.25.175 2.391-3.374 4.316-5.7 5.426-2.27 1.047-4.248 2.507-5.76.057-.466.642-1.454 2.625 1.571 2.45 2.965-.176 9.83-2.507 13.903-4.9.793-.46 1.362-.695 1.748-.769.165-.4.337-.84.523-1.331 1.687-4.315 3.257-8.575 3.606-9.391.408-.875 1.978-1.398 4.014-.29.875.466 1.513 1.633 1.106 2.273-.35.468-2.558 3.093-5.352 11.2 4.713-3.442 10.996-11.083 13.44-10.907 2.5.175 3.548 1.923 2.21 4.9-1.397 3.09-2.036 8.34-.524 7.874 1.513-.467 5.585-2.858 7.388-4.083.431-.253.717-.282.855-.144.759-1.773 1.551-3.617 2.347-5.457-1.222.176-2.154.293-2.792.293-1.978.175-2.792-4.375-1.281-4.958 1.455-.642 1.223-.292 3.2-.466.465 0 1.687-.06 3.257-.116 1.63-3.502 3.26-6.592 4.596-8.868 4.889-7.99 7.33-11.373 8.728-11.14 1.456.35 4.305 2.217 4.48 2.916.059.7-.64.642-1.048 1.284-1.396 1.983-4.887 5.892-10.182 15.399 1.689-.176 3.202-.235 4.305-.41 3.782-.467 4.481-.232 4.307.234-.117.409-2.095 3.324-6.051 3.966-1.339.233-3.199.468-5.12.875-.698 1.341-1.455 2.625-2.21 4.2-8.088 16.04-8.67 20.005-9.308 21.931-.641 1.925-2.096 2.974-3.317 1.342-1.221-1.692-.756-5.075 1.048-9.041a843.108 843.108 0 013.823-9.117c-.483.61-1.1 1.274-1.847 1.942-3.257 2.976-5.584 5.25-8.494 4.784-2.909-.467-3.083-9.099-1.222-12.192-.814-.466-5.7 5.951-9.134 9.742-3.549 3.733-4.828 4.142-6.398 3.966-1.456-.175-2.737-4.491-1.804-5.95.445-.754.84-1.241 1.32-2.053-2.486 1.464-11.729 6.246-15.575 7.128-2.573.573-4.203-.439-4.97-1.846-.358 1.557-1.668 3.503-3.41 5.111-1.932 1.788-4.12 2.929-6.08 3.009-3.947.156-5.288-2.692-3.94-6.126.894-2.286 1.953-3.6 2.945-4.043.375-.168.774-.142 1.03.209.18.25.198.547.13.924-.108.562-.45 1.396-1.012 2.454-.541 1.018-.829 1.981-.79 2.64.035.575.285.821.928.821 2.059 0 4.749-2.202 6.166-5.602l.013-.03c.203-.417.316-.793.333-1.078.013-.207-.02-.315-.05-.34-.468-.376-1.342-.759-2.221-1.016a73.081 73.081 0 00-.554-.139 31.58 31.58 0 01-.753-.199 18.247 18.247 0 01-1.826-.596c-1.89-.738-3.19-1.695-3.658-3.002-.469.918-1.411 2.161-2.824 3.424-3.259 2.976-5.585 5.25-8.493 4.784-2.91-.467-3.083-9.099-1.221-12.192-.816-.466-5.703 5.951-9.135 9.742-3.548 3.733-4.83 4.142-6.4 3.966-1.453-.175-2.734-4.491-1.802-5.95.489-.827.913-1.333 1.46-2.297-3.883 2.97-10.117 7.448-11.76 7.838-2.211.642-4.48-1.398-4.188-4.724.291-3.15 2.909-9.333 4.48-11.198 1.57-1.926 1.977-1.926 2.443-1.926 1.105 0 3.374 2.509 3.2 3.441-.06.934-.466.992-1.572 1.633-.989.76-4.828 8.108-3.141 7.642 1.574-.436 9.57-4.877 12.247-6.469.066-.17.135-.347.204-.531 1.689-4.315 3.259-8.575 3.608-9.391.407-.875 1.978-1.398 4.013-.29.872.466 1.513 1.633 1.105 2.273-.348.468-2.56 3.093-5.352 11.2 4.713-3.442 10.997-11.083 13.44-10.907 2.5.175 3.548 1.923 2.21 4.9-1.397 3.09-2.036 8.34-.524 7.874 1.513-.467 5.586-2.858 7.39-4.083.112-.065.214-.118.307-.153M35.616 1.642c.06.87-.526 1.974-.76 2.379-2.863 4.872-19.285 32.082-21.8 36.432-2.454 4.41-1.694 6.323-5.551 6.498-1.17.058-2.747-.812-3.45-4.352-.467-2.32-1.167-10.614-1.811-18.216L1.193 9.765c-2.28-.93-.818-6.324.467-7.253 1.168-.986 1.988-.579 3.33.058 4.328 2.031 3.859 3.89 3.568 5.743-.177.928.175 8.182.468 15.143.175 4.118.408 8.702.702 13.75 5.785-6.44 19.753-31.62 22.558-35.564.525-.754.702-1.334.993-1.51 1.11-.463 2.164.349 2.339 1.51m-4.09 21.44c-.92.75-3.506 1.727-4.138.345-.747-1.324-1.32-3.685-.46-3.973.978-.344 3.103-.92 3.39-.92.978-.172 1.725 1.726 2.472 2.59.687.865-.346 1.21-1.265 1.957m58.395 7.073c-.552 2.693-4.964 4.63-6.95 5.17 2.206-2.585 3.53-3.877 6.95-5.17" fill="#FFF" fill-rule="evenodd"/></svg>